<svg width="12" height="12" viewBox="0 0 12 12" fill="none" xmlns="http://www.w3.org/2000/svg">
<path d="M4.42141 2.37621C3.16693 3.78442 2.30602 5.80757 2.22608 5.9982L0 5.04504L2.4905 2.55454C2.77952 2.26552 3.19768 2.13639 3.60354 2.21633L4.42141 2.37621ZM5.63899 8.92531C5.63899 8.92531 7.93886 7.97215 9.26097 6.65003C12.5816 3.32937 12.0282 0.734326 11.8499 0.150134C11.2657 -0.0343472 8.67063 -0.581643 5.34997 2.73903C4.02785 4.06114 3.07469 6.36101 3.07469 6.36101L5.63899 8.92531ZM9.62379 7.57859C8.21558 8.83307 6.19243 9.69398 6.0018 9.77392L6.95496 12L9.44546 9.5095C9.73448 9.22048 9.86361 8.80232 9.78367 8.39646L9.62379 7.57859ZM4.30457 9.54025C4.30457 10.0506 4.09549 10.5118 3.76342 10.8439C3.0378 11.5695 0 12 0 12C0 12 0.430457 8.9622 1.15608 8.23658C1.48815 7.90451 1.94936 7.69543 2.45975 7.69543C3.48055 7.69543 4.30457 8.51945 4.30457 9.54025ZM6.76432 4.0058C6.76432 3.32937 7.31777 2.77592 7.9942 2.77592C8.67063 2.77592 9.22408 3.32937 9.22408 4.0058C9.22408 4.68223 8.67063 5.23568 7.9942 5.23568C7.31777 5.23568 6.76432 4.68223 6.76432 4.0058Z" fill="black"/>
</svg>
