<svg width="12" height="12" viewBox="0 0 12 12" fill="none" xmlns="http://www.w3.org/2000/svg">
<path d="M6 10.2625C5.89167 10.2625 5.7855 10.2438 5.6815 10.2065C5.57717 10.1688 5.47917 10.1166 5.3875 10.05L2.0125 7.42495C1.87917 7.32495 1.81467 7.19362 1.819 7.03095C1.823 6.86862 1.89167 6.73745 2.025 6.63745C2.11667 6.57078 2.21667 6.53745 2.325 6.53745C2.43333 6.53745 2.53333 6.57078 2.625 6.63745L6 9.24995L9.375 6.63745C9.46667 6.57078 9.56667 6.53745 9.675 6.53745C9.78333 6.53745 9.88333 6.57078 9.975 6.63745C10.1083 6.73745 10.1772 6.86862 10.1815 7.03095C10.1855 7.19362 10.1208 7.32495 9.9875 7.42495L6.6125 10.05C6.52083 10.1166 6.423 10.1688 6.319 10.2065C6.21467 10.2438 6.10833 10.2625 6 10.2625ZM6 7.73745C5.89167 7.73745 5.7855 7.71878 5.6815 7.68145C5.57717 7.64378 5.47917 7.59162 5.3875 7.52495L2.0125 4.89995C1.94583 4.84995 1.89583 4.78962 1.8625 4.71895C1.82917 4.64795 1.8125 4.57495 1.8125 4.49995C1.8125 4.42495 1.82917 4.35195 1.8625 4.28095C1.89583 4.21028 1.94583 4.14995 2.0125 4.09995L5.3875 1.47495C5.47917 1.40828 5.57717 1.35612 5.6815 1.31845C5.7855 1.28112 5.89167 1.26245 6 1.26245C6.10833 1.26245 6.21467 1.28112 6.319 1.31845C6.423 1.35612 6.52083 1.40828 6.6125 1.47495L9.9875 4.09995C10.0542 4.14995 10.1042 4.21028 10.1375 4.28095C10.1708 4.35195 10.1875 4.42495 10.1875 4.49995C10.1875 4.57495 10.1708 4.64795 10.1375 4.71895C10.1042 4.78962 10.0542 4.84995 9.9875 4.89995L6.6125 7.52495C6.52083 7.59162 6.423 7.64378 6.319 7.68145C6.21467 7.71878 6.10833 7.73745 6 7.73745Z" fill="black"/>
</svg>
