<svg width="12" height="12" viewBox="0 0 12 12" fill="none" xmlns="http://www.w3.org/2000/svg">
<g clip-path="url(#clip0_2027_2187)">
<path d="M6.5 4.5H7.25V7.5H6.5V6.25H5.5V7.5H4.75V4.5H5.5V5.5H6.5V4.5ZM4 5.25V5.75C4 6.15 3.65 6.5 3.25 6.5H2.25V7.5H1.5V4.5H3.25C3.65 4.5 4 4.85 4 5.25ZM3.25 5.25H2.25V5.75H3.25V5.25ZM10.75 5.25V5.75C10.75 6.15 10.4 6.5 10 6.5H9V7.5H8.25V4.5H10C10.4 4.5 10.75 4.85 10.75 5.25ZM10 5.25H9V5.75H10V5.25Z" fill="black"/>
</g>
<defs>
<clipPath id="clip0_2027_2187">
<rect width="12" height="12" fill="white"/>
</clipPath>
</defs>
</svg>
